# AST/ASF file generated using VICON BodyLanguage
# -----------------------------------------------
:version 1.10
:name VICON
:units
  mass 1.0
  length 0.45
  angle deg
:documentation
   .ast/.asf automatically generated from VICON data using
   VICON BodyBuilder and BodyLanguage model FoxedUp or BRILLIANT.MOD
:root
   order TX TY TZ RX RY RZ
   axis XYZ
   position 0 0 0  
   orientation 0 0 0 
:bonedata
  begin
     id 1 
     name lhipjoint
     direction 0.588788 -0.725889 0.355548 
     length 2.37778 
     axis 0 0 0  XYZ
  end
  begin
     id 2 
     name lfemur
     direction 0.34202 -0.939693 0  
     length 6.86393  
     axis 0 0 20  XYZ
    dof rx ry rz
    limits (-160.0 20.0)
           (-70.0 70.0)
           (-60.0 70.0)
  end
  begin
     id 3 
     name ltibia
     direction 0.34202 -0.939693 0   
     length 7.32851   
     axis 0 0 20   XYZ
    dof rx
    limits (-10.0 170.0)
  end
  begin
     id 4 
     name lfoot
     direction 0.0626533 -0.172138 0.983078   
     length 1.98929   
     axis -90 7.62852e-016 20   XYZ
    dof rx rz
    limits (-45.0 90.0)
           (-70.0 20.0)
  end
  begin
     id 5 
     name ltoes
     direction 1.53647e-011 -4.21734e-011 1   
     length 1.00479   
     axis -90 7.62852e-016 20   XYZ
    dof rx
    limits (-90.0 20.0)
  end
  begin
     id 6 
     name rhipjoint
     direction -0.59141 -0.724168 0.354705   
     length 2.38343  
     axis 0 0 0  XYZ 
  end
  begin
     id 7 
     name rfemur
     direction -0.34202 -0.939693 0   
     length 6.95589   
     axis 0 0 -20   XYZ
    dof rx ry rz
    limits (-160.0 20.0)
           (-70.0 70.0)
           (-70.0 60.0)
  end
  begin
     id 8 
     name rtibia
     direction -0.34202 -0.939693 0   
     length 7.32327   
     axis 0 0 -20   XYZ
    dof rx
    limits (-10.0 170.0)
 end
 begin
     id 9 
     name rfoot
     direction -0.0660461 -0.18146 0.981178   
     length 1.85272  
     axis -90 -7.62852e-016 -20   XYZ
    dof rx rz
    limits (-45.0 90.0)
           (-20.0 70.0)
  end
  begin
     id 10 
     name rtoes
     direction -1.53586e-011 -4.21988e-011 1   
     length 0.93746   
     axis -90 -7.62852e-016 -20   XYZ
    dof rx
    limits (-90.0 20.0)
  end
  begin
     id 11 
     name lowerback
     direction -0.0107982 0.991059 0.13299   
     length 1.98691   
     axis 0 0 0   XYZ
    dof rx ry rz
    limits (-20.0 45.0)
           (-30.0 30.0)
           (-30.0 30.0)
  end
  begin
     id 12 
     name upperback
     direction 0.0076296 0.999916 0.0104576   
     length 1.99501   
     axis 0 0 0   XYZ
    dof rx ry rz
    limits (-20.0 45.0)
           (-30.0 30.0)
           (-30.0 30.0)
  end
  begin
     id 13 
     name thorax
     direction 0.01176 0.998615 -0.0512909   
     length 2.03144   
     axis 0 0 0   XYZ
    dof rx ry rz
    limits (-20.0 45.0)
           (-30.0 30.0)
           (-30.0 30.0)
  end
  begin
     id 14 
     name lowerneck
     direction -0.0171909 0.999644 0.0204011   
     length 1.71818   
     axis 0 0 0   XYZ
    dof rx ry rz
    limits (-20.0 45.0)
           (-30.0 30.0)
           (-30.0 30.0)
  end
  begin
     id 15 
     name upperneck
     direction 0.0250902 0.997482 -0.0663316   
     length 1.66199   
     axis 0 0 0   XYZ
    dof rx ry rz
    limits (-20.0 45.0)
           (-30.0 30.0)
           (-30.0 30.0)
  end
  begin
     id 16
     name head
     direction 0.00881535 0.99956 -0.0283365  
     length 1.81545  
     axis 0 0 0   XYZ
    dof rx ry rz
    limits (-20.0 45.0)
           (-30.0 30.0)
           (-30.0 30.0)
  end
  begin
     id 17 
     name lclavicle
     direction 0.840411 0.486876 -0.238035  
     length 3.30409  
     axis 0 0 0   XYZ
    dof ry rz
    limits (-20.0 10.0)
           (0.0 20.0)
  end
  begin
     id 18 
     name lhumerus
     direction 1 -4.48977e-011 -5.16239e-027   
     length 4.62672   
     axis 180 -30 -90   XYZ
    dof rx ry rz
    limits (-60.0 90.0)
           (-90.0 90.0)
           (-90.0 90.0)
  end
  begin
     id 19
     name lradius
     direction 1 -4.48977e-011 -8.71171e-027   
     length 3.11018   
     axis 180 -30 -90   XYZ
    dof rx
    limits (-10.0 170.0)
  end
  begin
     id 20
     name lwrist
     direction 1 -4.48912e-011 -1.03764e-026   
     length 1.55509   
     axis 9.09556e-015 90 90   XYZ
    dof ry
    limits (-180.0 0.0)
 end
  begin
     id 21 
     name lhand
     direction 1 -4.49072e-011 -2.07528e-026   
     length 0.743834   
     axis 1.3242e-014 90 90   XYZ
    dof rx rz
    limits (-90.0 90.0)
           (-45.0 45.0)
  end
  begin
     id 22 
     name lfingers
     direction 1 -4.48909e-011 -4.15056e-026   
     length 0.599698   
     axis 2.64841e-014 90 90   XYZ
    dof rx
    limits (0.0 90.0)
  end
  begin
     id 23
     name lthumb
     direction 0.707107 -6.35013e-011 0.707107   
     length 0.86105   
     axis -90 45 2.85299e-015   XYZ
    dof rx rz
    limits (-45.0 45.0)
           (-45.0 45.0)
  end
  begin
     id 24 
     name rclavicle
     direction -0.835208 0.500237 -0.228452   
     length 3.2716  
     axis 0 0 0   XYZ 
    dof ry rz
    limits (-10.0 20.0)
           (-20.0 0.0)
  end
  begin
     id 25 
     name rhumerus
     direction -1 -4.48978e-011 -5.1953e-028  
     length 4.55919   
     axis 180 30 90   XYZ
    dof rx ry rz
    limits (-90.0 60.0)
           (-90.0 90.0)
           (-90.0 90.0)
  end
  begin
     id 26 
     name rradius
     direction -1 -4.48961e-011 -5.99546e-027   
     length 3.22748   
     axis 180 30 90   XYZ
    dof rx
    limits (-10.0 170.0)
  end
  begin
     id 27 
     name rwrist
     direction -1 -4.48986e-011 -1.03764e-026   
     length 1.61374   
     axis 9.09556e-015 -90 -90   XYZ
    dof ry
    limits (-180.0 0.0)
  end
  begin
     id 28
     name rhand
     direction -1 -4.4899e-011 -2.07528e-026   
     length 0.700882   
     axis 1.3242e-014 -90 -90   XYZ
    dof rx rz
    limits (-90.0 90.0)
           (-45.0 45.0)
  end
  begin
     id 29
     name rfingers
     direction -1 -4.48991e-011 -4.15056e-026   
     length 0.565069   
     axis 2.64841e-014 -90 -90   XYZ
    dof rx
    limits (0.0 90.0)
  end
  begin
     id 30
     name rthumb
     direction -0.707107 -6.34804e-011 0.707107   
     length 0.811329   
     axis -90 -45 -2.85299e-015   XYZ
    dof rx rz
    limits (-45.0 45.0)
           (-45.0 45.0)
  end
:hierarchy
  begin
    root lhipjoint rhipjoint lowerback
    lhipjoint lfemur
    lfemur ltibia
    ltibia lfoot
    lfoot ltoes
    rhipjoint rfemur
    rfemur rtibia
    rtibia rfoot
    rfoot rtoes
    lowerback upperback
    upperback thorax
    thorax lowerneck lclavicle rclavicle
    lowerneck upperneck
    upperneck head
    lclavicle lhumerus
    lhumerus lradius
    lradius lwrist
    lwrist lhand lthumb
    lhand lfingers
    rclavicle rhumerus
    rhumerus rradius
    rradius rwrist
    rwrist rhand rthumb
    rhand rfingers
  end

#!OML:ASF F:\VICON\USERDATA\INSTALL\SteveWalk\SteveWalk.ASF
:FULLY-SPECIFIED
:DEGREES
96
root -0.424288 16.3451 -22.4026 15.8536 3.91262 2.67358
lowerback -13.0908 -2.25405 -5.1441
upperback -4.31098 -2.32151 -0.0168657
thorax 2.99342 -1.14346 2.52073
lowerneck -4.06162 -2.20703 -0.697443
upperneck 13.9818 -3.34549 3.04158
head 4.92549 -1.49383 0.872351
rclavicle 1.3171e-014 8.05078e-015
rhumerus -78.9345 -41.3486 -21.3821
rradius 11.4697
rwrist 48.2153
rhand -13.7859 -35.9254
rfingers 7.12502
rthumb 12.3356 -65.5415
lclavicle 1.3171e-014 8.05078e-015
lhumerus -26.3034 -6.08974 83.5883
lradius 42.7992
lwrist 6.98164
lhand -21.3828 -18.3276
lfingers 7.12502
lthumb 5.00478 11.5933
rfemur -48.5084 -4.5145 20.8245
rtibia 30.1176
rfoot -9.97678 -3.22525
rtoes -16.534
lfemur -11.8729 7.06295 -25.6747
ltibia 25.3668
lfoot -26.1325 -9.66257
ltoes -4.68591
97
root -0.430429 16.3293 -22.191 15.9044 4.55482 2.88284
lowerback -13.0022 -2.43789 -5.31352
upperback -4.0909 -2.54235 -0.00516873
thorax 3.20188 -1.2615 2.59055
lowerneck -4.98726 -2.33783 -0.609337
upperneck 13.9439 -3.51907 2.94283
head 5.07153 -1.57132 0.80607
rclavicle 1.09052e-014 6.5102e-015
rhumerus -78.2058 -40.9355 -22.8088
rradius 11.7166
rwrist 46.4623
rhand -13.9479 -36.4539
rfingers 7.12502
rthumb 12.1793 -66.0794
lclavicle 1.09052e-014 6.5102e-015
lhumerus -25.2421 -6.82549 83.4623
lradius 43.9528
lwrist 7.32583
lhand -21.5568 -18.4514
lfingers 7.12502
lthumb 4.83674 11.4734
rfemur -48.5356 -4.95187 20.7514
rtibia 27.1545
rfoot -10.2479 -2.31568
rtoes -13.6931
lfemur -10.5763 7.16983 -25.5316
ltibia 24.2646
lfoot -25.9192 -10.4617
ltoes -4.95945
98
root -0.435059 16.3118 -21.9781 16.0358 5.27495 3.02642
lowerback -13.0816 -2.63457 -5.37527
upperback -4.33025 -2.7961 0.0283531
thorax 3.01892 -1.37802 2.62139
lowerneck -3.90632 -2.43716 -0.614544
upperneck 13.2936 -3.62071 2.88079
head 4.68903 -1.64338 0.799021
rclavicle 2.10316e-014 -3.8763e-015
rhumerus -77.8777 -39.603 -24.0896
rradius 11.92
rwrist 44.5729
rhand -13.9653 -36.1731
rfingers 7.12502
rthumb 12.1626 -65.7996
lclavicle 2.10316e-014 -3.8763e-015
lhumerus -25.2446 -7.41269 83.4395
lradius 45.1083
lwrist 7.4755
lhand -21.451 -18.8226
lfingers 7.12502
lthumb 4.9389 11.0998
rfemur -48.621 -5.55676 20.8503
rtibia 24.4503
rfoot -10.6483 -1.2263
rtoes -9.99406
lfemur -9.33734 7.13044 -25.3
ltibia 23.1837
lfoot -25.7792 -10.9063
ltoes -6.32399
99
root -0.438997 16.2924 -21.7612 16.2746 6.03101 3.25103
lowerback -13.1185 -2.89847 -5.57452
upperback -4.09044 -3.11427 0.13828
thorax 3.33405 -1.54731 2.78802
lowerneck -5.11892 -2.47662 -0.560132
upperneck 13.2752 -3.6689 2.77893
head 4.88669 -1.6586 0.739876
rclavicle -4.21447e-015 -3.6887e-014
rhumerus -78.1141 -39.8264 -23.4745
rradius 11.84
rwrist 44.4965
rhand -14.2195 -35.2262
rfingers 7.12502
rthumb 11.9174 -64.867
lclavicle -4.21447e-015 -3.6887e-014
lhumerus -24.0403 -7.58124 83.3485
lradius 46.0741
lwrist 7.6427
lhand -21.1553 -18.7158
lfingers 7.12502
lthumb 5.22444 11.1998
rfemur -48.7902 -6.32005 20.9729
rtibia 21.9574
rfoot -10.7991 -0.114216
rtoes -10.0403
lfemur -8.20479 6.9191 -25.1309
ltibia 22.1615
lfoot -25.5783 -11.4852
ltoes -6.47484
100
root -0.439597 16.2708 -21.5391 16.5206 6.78863 3.5108
lowerback -13.3993 -3.12259 -5.70579
upperback -4.25967 -3.3773 0.135594
thorax 3.33826 -1.67345 2.8066
lowerneck -4.29573 -2.5319 -0.53781
upperneck 12.6618 -3.72873 2.81636
head 4.56068 -1.69965 0.75886
rclavicle -3.06731e-014 -1.74154e-014
rhumerus -78.1757 -38.8562 -24.0251
rradius 11.9704
rwrist 43.2367
rhand -14.4182 -34.7863
rfingers 7.12502
rthumb 11.7259 -64.4381
lclavicle -3.06731e-014 -1.74154e-014
lhumerus -23.908 -8.07565 83.3308
lradius 47.0712
lwrist 7.60951
lhand -20.9907 -18.6866
lfingers 7.12502
lthumb 5.38332 11.225
rfemur -49.1686 -7.36563 21.3217
rtibia 19.8285
rfoot -10.8212 1.1134
rtoes -14.2199
lfemur -7.08558 6.54641 -24.9911
ltibia 21.1323
lfoot -25.0581 -12.451
ltoes -4.58771
101
root -0.436707 16.2482 -21.3125 16.7137 7.57966 3.70626
lowerback -13.6142 -3.35629 -5.64388
upperback -4.23297 -3.67678 0.115039
thorax 3.50545 -1.82546 2.68713
lowerneck -4.29822 -2.58978 -0.385757
upperneck 11.8743 -3.77536 2.61815
head 4.78577 -1.74143 0.751874
rclavicle -2.22903e-014 1.09518e-014
rhumerus -78.8323 -38.7953 -23.2873
rradius 11.9484
rwrist 43.3803
rhand -14.4524 -34.8459
rfingers 7.12502
rthumb 11.6928 -64.4996
lclavicle -2.22903e-014 1.09518e-014
lhumerus -23.3576 -8.34348 83.1184
lradius 47.931
lwrist 7.2647
lhand -20.562 -18.8287
lfingers 7.12502
lthumb 5.79722 11.072
rfemur -50.0322 -8.76791 22.0833
rtibia 18.5356
rfoot -11.102 2.87209
rtoes -17.3055
lfemur -5.6833 6.01784 -24.7988
ltibia 19.6826
lfoot -24.4696 -12.8193
ltoes -6.24104
102
root -0.437502 16.2282 -21.0857 16.8929 8.33166 3.92113
lowerback -13.7562 -3.61829 -5.62135
upperback -4.21647 -4.01573 0.134944
thorax 3.63007 -1.99576 2.6269
lowerneck -4.38744 -2.58501 -0.280633
upperneck 11.551 -3.74815 2.43879
head 4.67641 -1.73509 0.673145
rclavicle 1.60767e-014 2.68359e-015
rhumerus -79.7754 -38.8435 -21.8788
rradius 11.8612
rwrist 44.0965
rhand -14.0514 -34.6053
rfingers 7.12502
rthumb 12.0795 -64.2366
lclavicle 1.60767e-014 2.68359e-015
lhumerus -22.9613 -8.37155 82.9511
lradius 48.8162
lwrist 7.17557
lhand -20.2515 -18.7469
lfingers 7.12502
lthumb 6.09702 11.1453
rfemur -50.2025 -9.73598 22.4909
rtibia 16.9466
rfoot -11.0323 4.3602
rtoes -18.0587
lfemur -4.67701 5.44945 -24.6096
ltibia 19.094
lfoot -24.5189 -12.5255
ltoes -11.0065
103
root -0.44403 16.2348 -20.8259 15.991 10.6658 4.36613
lowerback -13.0141 -4.40843 -5.88144
upperback -3.84018 -5.07076 0.235366
thorax 3.7487 -2.52962 2.71717
lowerneck -4.32009 -2.56056 -0.129866
upperneck 11.1806 -3.68116 2.11873
head 4.51336 -1.71583 0.543655
rclavicle 7.79609e-015 6.31141e-015
rhumerus -79.5801 -38.3942 -22.2138
rradius 11.8753
rwrist 43.4079
rhand -13.3775 -34.6283
rfingers 7.12502
rthumb 12.7293 -64.2203
lclavicle 7.79609e-015 6.31141e-015
lhumerus -22.6749 -8.34453 82.9254
lradius 49.5889
lwrist 7.39801
lhand -20.9003 -19.1778
lfingers 7.12502
lthumb 5.47058 10.7316
rfemur -48.5841 -10.4281 21.2041
rtibia 16.3747
rfoot -11.2505 3.07995
rtoes -17.8734
lfemur -2.15316 4.03807 -23.8936
ltibia 18.0583
lfoot -24.2556 -13.4732
ltoes -11.9664
104
root -0.42521 16.1711 -20.6717 18.0111 7.79146 3.60208
lowerback -14.4787 -3.41555 -4.86928
upperback -4.6223 -3.82649 0.360173
thorax 3.54498 -1.89108 2.45318
lowerneck -4.13871 -2.61059 0.106352
upperneck 10.669 -3.7068 1.68133
head 4.27419 -1.746 0.358576
rclavicle -9.405e-015 1.28216e-014
rhumerus -79.3022 -38.0072 -22.5397
rradius 11.8434
rwrist 42.8705
rhand -13.5681 -34.4641
rfingers 7.12502
rthumb 12.5456 -64.0675
lclavicle -9.405e-015 1.28216e-014
lhumerus -22.436 -8.21245 82.9032
lradius 50.2727
lwrist 7.46029
lhand -21.8085 -19.7187
lfingers 7.12502
lthumb 4.59364 10.2115
rfemur -52.3552 -10.3316 24.3764
rtibia 16.1987
rfoot -10.3317 8.64755
rtoes -13.0145
lfemur -3.5016 4.86392 -24.3367
ltibia 17.3975
lfoot -23.3964 -11.3035
ltoes -13.1189
